<svg viewBox="0 0 64 64" xmlns="http://www.w3.org/2000/svg">
    <g fill="#707070">
        <path d="M62,63H2a1,1,0,0,1-1-1V2A1,1,0,0,1,2,1H62a1,1,0,0,1,1,1V62A1,1,0,0,1,62,63ZM3,61H61V3H3Z"/>
        <path
            d="M61.25,50.66,46,33.46,32.71,46.71a1,1,0,0,1-1.49-.08L16,27.61l-13.22,17L1.21,43.39l14-18A1,1,0,0,1,16,25h0a1,1,0,0,1,.78.38L32.09,44.5l13.2-13.21A1,1,0,0,1,46,31a1,1,0,0,1,.72.33l16,18Z"/>
        <path d="M40,29a9,9,0,1,1,9-9A9,9,0,0,1,40,29Zm0-16a7,7,0,1,0,7,7A7,7,0,0,0,40,13Z"/>
    </g>
</svg>
