<?xml version="1.0" encoding="utf-8"?>
<!DOCTYPE svg PUBLIC "-//W3C//DTD SVG 1.1//EN" "http://www.w3.org/Graphics/SVG/1.1/DTD/svg11.dtd">
<svg version="1.1" preserveAspectRatio="xMinYMin meet" xmlns="http://www.w3.org/2000/svg" x="0px" y="0px" width="16px" height="16px" viewBox="0 0 16 16">
    <path d="M1 0h4v1h-4v-1z" fill="rgb(0,0,0)"/>
    <path d="M11 0h4v1h-4v-1z" fill="rgb(0,0,0)"/>
    <path d="M0 1h1v3h-1v-3z" fill="rgb(0,0,0)"/>
    <path d="M1 1h1v1h-1v-1z" fill="rgb(255,175,73)"/>
    <path d="M2 1h2v1h-2v-1z" fill="rgb(255,255,255)"/>
    <path d="M4 1h1v1h-1v-1z" fill="rgb(255,175,73)"/>
    <path d="M5 1h6v3h-1v-2h-4v2h-1v-3z" fill="rgb(0,0,0)"/>
    <path d="M11 1h1v1h-1v-1z" fill="rgb(255,175,73)"/>
    <path d="M12 1h2v1h-2v-1z" fill="rgb(255,255,255)"/>
    <path d="M14 1h1v1h-1v-1z" fill="rgb(255,175,73)"/>
    <path d="M15 1h1v3h-1v-3z" fill="rgb(0,0,0)"/>
    <path d="M1 2h1v1h-1v-1z" fill="rgb(254,221,0)"/>
    <path d="M2 2h2v1h-2v-1z" fill="rgb(0,0,0)"/>
    <path d="M4 2h1v1h-1v-1z" fill="rgb(254,221,0)"/>
    <path d="M6 2h4v2h-4v-2z" fill="rgb(180,210,17)"/>
    <path d="M11 2h1v1h-1v-1z" fill="rgb(254,221,0)"/>
    <path d="M12 2h2v1h-2v-1z" fill="rgb(0,0,0)"/>
    <path d="M14 2h1v1h-1v-1z" fill="rgb(254,221,0)"/>
    <path d="M1 3h1v1h-1v-1z" fill="rgb(212,124,0)"/>
    <path d="M2 3h2v1h-2v-1z" fill="rgb(254,221,0)"/>
    <path d="M4 3h1v1h-1v-1z" fill="rgb(212,124,0)"/>
    <path d="M11 3h1v1h-1v-1z" fill="rgb(212,124,0)"/>
    <path d="M12 3h2v1h-2v-1z" fill="rgb(254,221,0)"/>
    <path d="M14 3h1v1h-1v-1z" fill="rgb(212,124,0)"/>
    <path d="M1 4h4v1h-4v-1z" fill="rgb(0,0,0)"/>
    <path d="M5 4h6v1h-6v-1z" fill="rgb(100,183,50)"/>
    <path d="M11 4h4v1h-4v-1z" fill="rgb(0,0,0)"/>
    <path d="M0 5h1v3h-1v-3z" fill="rgb(0,0,0)"/>
    <path d="M1 5h1v1h-1v-1z" fill="rgb(100,183,50)"/>
    <path d="M2 5h12v1h-12v-1z" fill="rgb(254,221,0)"/>
    <path d="M14 5h1v1h-1v-1z" fill="rgb(100,183,50)"/>
    <path d="M15 5h1v3h-1v-3z" fill="rgb(0,0,0)"/>
    <path d="M1 6h1v1h-1v-1z" fill="rgb(254,221,0)"/>
    <path d="M2 6h12v1h-12v-1z" fill="rgb(0,0,0)"/>
    <path d="M14 6h1v1h-1v-1z" fill="rgb(254,221,0)"/>
    <path d="M1 7h1v1h-1v-1z" fill="rgb(100,183,50)"/>
    <path d="M2 7h12v1h-12v-1z" fill="rgb(254,221,0)"/>
    <path d="M14 7h1v1h-1v-1z" fill="rgb(100,183,50)"/>
    <path d="M1 8h14v2h-1v-1h-12v1h-1v-2z" fill="rgb(0,0,0)"/>
    <path d="M2 9h3v1h-1v1h-1v-1h-1v-1z" fill="rgb(71,139,30)"/>
    <path d="M5 9h1v1h-1v-1z" fill="rgb(100,183,50)"/>
    <path d="M6 9h4v1h-4v-1z" fill="rgb(71,139,30)"/>
    <path d="M10 9h1v1h-1v-1z" fill="rgb(100,183,50)"/>
    <path d="M11 9h3v1h-1v1h-1v-1h-1v-1z" fill="rgb(71,139,30)"/>
    <path d="M0 10h1v2h-1v-2z" fill="rgb(0,0,0)"/>
    <path d="M1 10h2v2h-1v-1h-1v-1z" fill="rgb(180,210,17)"/>
    <path d="M4 10h1v1h-1v-1z" fill="rgb(56,110,23)"/>
    <path d="M5 10h1v3h-1v-3z" fill="rgb(180,210,17)"/>
    <path d="M6 10h1v1h-1v-1z" fill="rgb(56,110,23)"/>
    <path d="M7 10h2v2h-2v-2z" fill="rgb(100,183,50)"/>
    <path d="M9 10h1v1h-1v-1z" fill="rgb(56,110,23)"/>
    <path d="M10 10h1v3h-1v-3z" fill="rgb(180,210,17)"/>
    <path d="M11 10h1v1h-1v-1z" fill="rgb(56,110,23)"/>
    <path d="M13 10h2v1h-1v1h-1v-2z" fill="rgb(180,210,17)"/>
    <path d="M15 10h1v2h-1v-2z" fill="rgb(0,0,0)"/>
    <path d="M1 11h1v1h-1v-1z" fill="rgb(100,183,50)"/>
    <path d="M3 11h1v2h-1v-2z" fill="rgb(100,183,50)"/>
    <path d="M4 11h1v3h-1v-3z" fill="rgb(0,0,0)"/>
    <path d="M6 11h1v2h2v-2h1v4h-1v-1h-2v1h-1v-4z" fill="rgb(0,0,0)"/>
    <path d="M11 11h1v3h-1v-3z" fill="rgb(0,0,0)"/>
    <path d="M12 11h1v2h-1v-2z" fill="rgb(100,183,50)"/>
    <path d="M14 11h1v1h-1v-1z" fill="rgb(100,183,50)"/>
    <path d="M1 12h1v1h-1v-1z" fill="rgb(0,0,0)"/>
    <path d="M2 12h1v1h-1v-1z" fill="rgb(71,139,30)"/>
    <path d="M7 12h2v1h-2v-1z" fill="rgb(71,139,30)"/>
    <path d="M13 12h1v1h-1v-1z" fill="rgb(71,139,30)"/>
    <path d="M14 12h1v1h-1v-1z" fill="rgb(0,0,0)"/>
    <path d="M0 13h1v1h3v1h2v1h-3v-1h-3v-2z" fill="rgb(0,0,0)"/>
    <path d="M1 13h1v1h-1v-1z" fill="rgb(180,210,17)"/>
    <path d="M2 13h1v1h-1v-1z" fill="rgb(100,183,50)"/>
    <path d="M3 13h1v1h-1v-1z" fill="rgb(71,139,30)"/>
    <path d="M5 13h1v1h-1v-1z" fill="rgb(254,221,0)"/>
    <path d="M10 13h1v1h-1v-1z" fill="rgb(254,221,0)"/>
    <path d="M12 13h1v1h-1v-1z" fill="rgb(71,139,30)"/>
    <path d="M13 13h1v1h-1v-1z" fill="rgb(100,183,50)"/>
    <path d="M14 13h1v1h-1v-1z" fill="rgb(180,210,17)"/>
    <path d="M15 13h1v2h-3v1h-3v-1h2v-1h3v-1z" fill="rgb(0,0,0)"/>
    <path d="M4 14h1v1h-1v-1z" fill="rgb(254,221,0)"/>
    <path d="M5 14h1v1h-1v-1z" fill="rgb(100,183,50)"/>
    <path d="M10 14h1v1h-1v-1z" fill="rgb(100,183,50)"/>
    <path d="M11 14h1v1h-1v-1z" fill="rgb(254,221,0)"/>
</svg>
