<?xml version="1.0" encoding="utf-8"?>
<svg version="1.1" xmlns="http://www.w3.org/2000/svg" x="0px" y="0px" viewBox="0 0 100 82.9" enable-background="new 0 0 100 82.9">
    <g fill="#596271">
        <path d="M77.9,82.9H5.6c-3.4,0-5.6-2.4-5.6-5.2V21.9c0-3.5,2.1-6.1,5.6-6.1H50v11.1H11v45h61V54.8l12,0v22.9 C84,80.5,81.2,82.9,77.9,82.9L77.9,82.9z"/>
        <polygon points="16.5,66.9 39.8,44.6 50.2,54.4 61.5,39.6 67,50.2 67,66.9 "/>
        <path d="M28,44.4c-3.2,0-5.7-2.6-5.7-5.7c0-3.2,2.6-5.8,5.7-5.8c3.2,0,5.8,2.6,5.8,5.8C33.8,41.9,31.2,44.4,28,44.4 L28,44.4z"/>
        <polygon points="84,21.9 84,44 72,44 72,21.9 56.1,21.9 78.1,0 100,21.9 "/>
    </g>
</svg>
